<?xml version="1.0" encoding="UTF-8"?>
<svg xmlns="http://www.w3.org/2000/svg" width="160" height="160" viewBox="0 0 160 160" role="img" aria-labelledby="svg-title svg-desc">
<title id="svg-title">Vectorized image</title><desc id="svg-desc">Raster image converted to SVG paths by Agent Toolkit.</desc>
<path d="M 79 5 H 81 V 6 H 79 Z" fill="rgba(0,34,68,0.290)"/>
<path d="M 78 6 H 82 V 7 H 78 Z" fill="rgba(0,32,64,0.655)"/>
<path d="M 77 7 H 83 V 8 H 77 Z" fill="rgba(0,32,64,0.247)"/>
<path d="M 77 8 H 83 V 9 H 77 Z" fill="rgba(0,33,64,0.694)"/>
<path d="M 76 9 H 84 V 10 H 76 Z" fill="rgba(0,32,65,0.153)"/>
<path d="M 76 10 H 84 V 11 H 76 Z" fill="rgba(1,32,65,0.580)"/>
<path d="M 75 11 H 84 V 12 H 75 Z" fill="rgba(0,40,67,0.075)"/>
<path d="M 75 12 H 85 V 13 H 75 Z" fill="rgba(2,34,64,0.404)"/>
<path d="M 75 13 H 85 V 14 H 75 Z" fill="rgba(1,33,63,0.800)"/>
<path d="M 74 14 H 86 V 15 H 74 Z" fill="rgba(0,31,63,0.220)"/>
<path d="M 74 15 H 86 V 16 H 74 Z" fill="rgba(0,32,65,0.584)"/>
<path d="M 74 16 H 86 V 17 H 74 Z" fill="rgba(1,33,64,0.894)"/>
<path d="M 72 17 H 88 V 18 H 72 Z" fill="rgba(0,34,65,0.353)"/>
<path d="M 71 18 H 89 V 19 H 71 Z" fill="rgba(0,32,65,0.612)"/>
<path d="M 70 19 H 90 V 20 H 70 Z" fill="rgba(0,31,63,0.094)"/>
<path d="M 70 20 H 90 V 21 H 70 Z" fill="rgba(0,30,65,0.227)"/>
<path d="M 70 21 H 90 V 22 H 70 Z" fill="rgba(0,33,66,0.333)"/>
<path d="M 70 22 H 90 V 23 H 70 Z" fill="rgba(0,33,63,0.424)"/>
<path d="M 70 23 H 90 V 24 H 70 Z" fill="rgba(0,32,63,0.486)"/>
<path d="M 70 24 H 90 V 25 H 70 Z" fill="rgba(1,33,65,0.502)"/>
<path d="M 68 25 H 92 V 26 H 68 Z" fill="rgba(0,31,63,0.471)"/>
<path d="M 67 26 H 93 V 27 H 67 Z" fill="rgba(0,35,65,0.200)"/>
<path d="M 67 27 H 93 V 28 H 67 Z" fill="rgba(0,35,65,0.337)"/>
<path d="M 67 28 H 93 V 29 H 67 Z" fill="rgba(0,34,64,0.373)"/>
<path d="M 67 29 H 93 V 30 H 67 Z" fill="rgba(0,33,63,0.392)"/>
<path d="M 67 30 H 93 V 31 H 67 Z" fill="rgba(0,34,66,0.376)"/>
<path d="M 67 31 H 93 V 32 H 67 Z" fill="rgba(2,34,66,0.345)"/>
<path d="M 67 32 H 93 V 33 H 67 Z" fill="rgba(0,33,63,0.298)"/>
<path d="M 65 33 H 95 V 34 H 65 Z" fill="rgba(0,36,72,0.055)"/>
<path d="M 64 34 H 96 V 35 H 64 Z" fill="rgba(0,35,61,0.114)"/>
<path d="M 64 35 H 96 V 36 H 64 Z" fill="rgba(0,30,63,0.424)"/>
<path d="M 64 36 H 96 V 37 H 64 Z" fill="rgba(2,35,64,0.478)"/>
<path d="M 64 37 H 96 V 38 H 64 Z" fill="rgba(2,34,66,0.467)"/>
<path d="M 64 38 H 96 V 39 H 64 Z" fill="rgba(2,34,66,0.408)"/>
<path d="M 64 39 H 96 V 40 H 64 Z" fill="rgba(0,35,63,0.314)"/>
<path d="M 64 40 H 96 V 41 H 64 Z" fill="rgba(0,35,66,0.196)"/>
<path d="M 64 41 H 95 V 42 H 64 Z" fill="rgba(0,38,63,0.078)"/>
<path d="M 65 42 H 95 V 43 H 65 Z" fill="rgba(1,34,62,0.718)"/>
<path d="M 63 43 H 97 V 44 H 63 Z" fill="rgba(0,31,62,0.318)"/>
<path d="M 62 44 H 98 V 45 H 62 Z" fill="rgba(0,34,68,0.176)"/>
<path d="M 62 45 H 98 V 46 H 62 Z" fill="rgba(0,34,65,0.259)"/>
<path d="M 62 46 H 98 V 47 H 62 Z" fill="rgba(0,33,67,0.149)"/>
<path d="M 62 47 H 97 V 48 H 62 Z" fill="rgba(0,42,63,0.047)"/>
<path d="M 63 48 H 97 V 49 H 63 Z" fill="rgba(1,34,64,0.757)"/>
<path d="M 63 49 H 97 V 50 H 63 Z" fill="rgba(1,34,66,0.545)"/>
<path d="M 63 50 H 97 V 51 H 63 Z" fill="rgba(0,36,66,0.302)"/>
<path d="M 63 51 H 97 V 52 H 63 Z" fill="rgba(0,38,63,0.078)"/>
<path d="M 11 52 H 14 V 53 H 11 Z" fill="rgba(0,28,56,0.035)"/>
<path d="M 64 52 H 96 V 53 H 64 Z" fill="rgba(1,35,64,0.616)"/>
<path d="M 146 52 H 148 V 53 H 146 Z" fill="rgba(0,31,71,0.125)"/>
<path d="M 10 53 H 17 V 54 H 10 Z" fill="rgba(0,25,51,0.039)"/>
<path d="M 62 53 H 98 V 54 H 62 Z" fill="rgba(0,37,68,0.161)"/>
<path d="M 143 53 H 149 V 54 H 143 Z" fill="rgba(0,38,63,0.078)"/>
<path d="M 10 54 H 19 V 55 H 10 Z" fill="rgba(0,36,65,0.137)"/>
<path d="M 62 54 H 98 V 55 H 62 Z" fill="rgba(0,33,66,0.627)"/>
<path d="M 141 54 H 150 V 55 H 141 Z" fill="rgba(0,32,65,0.122)"/>
<path d="M 11 55 H 21 V 56 H 11 Z" fill="rgba(1,34,66,0.843)"/>
<path d="M 62 55 H 98 V 56 H 62 Z" fill="rgba(1,34,66,0.604)"/>
<path d="M 139 55 H 149 V 56 H 139 Z" fill="rgba(0,25,63,0.078)"/>
<path d="M 11 56 H 22 V 57 H 11 Z" fill="rgba(1,35,65,0.537)"/>
<path d="M 62 56 H 98 V 57 H 62 Z" fill="rgba(2,35,65,0.455)"/>
<path d="M 138 56 H 149 V 57 H 138 Z" fill="rgba(2,35,67,0.369)"/>
<path d="M 11 57 H 24 V 58 H 11 Z" fill="rgba(0,31,63,0.157)"/>
<path d="M 25 57 H 27 V 58 H 25 Z" fill="rgba(0,34,68,0.204)"/>
<path d="M 62 57 H 98 V 58 H 62 Z" fill="rgba(0,34,64,0.263)"/>
<path d="M 133 57 H 135 V 58 H 133 Z" fill="rgba(0,35,63,0.141)"/>
<path d="M 136 57 H 149 V 58 H 136 Z" fill="rgba(0,30,71,0.098)"/>
<path d="M 12 58 H 28 V 59 H 12 Z" fill="rgba(1,34,66,0.725)"/>
<path d="M 62 58 H 97 V 59 H 62 Z" fill="rgba(0,38,63,0.078)"/>
<path d="M 132 58 H 148 V 59 H 132 Z" fill="rgba(0,32,67,0.373)"/>
<path d="M 12 59 H 29 V 60 H 12 Z" fill="rgba(0,32,65,0.306)"/>
<path d="M 63 59 H 97 V 60 H 63 Z" fill="rgba(1,36,66,0.722)"/>
<path d="M 131 59 H 148 V 60 H 131 Z" fill="rgba(0,34,68,0.471)"/>
<path d="M 13 60 H 30 V 61 H 13 Z" fill="rgba(1,36,65,0.804)"/>
<path d="M 63 60 H 97 V 61 H 63 Z" fill="rgba(2,36,67,0.443)"/>
<path d="M 130 60 H 147 V 61 H 130 Z" fill="rgba(0,32,65,0.427)"/>
<path d="M 13 61 H 31 V 62 H 13 Z" fill="rgba(0,36,66,0.333)"/>
<path d="M 33 61 H 34 V 62 H 33 Z" fill="rgba(0,30,61,0.098)"/>
<path d="M 63 61 H 97 V 62 H 63 Z" fill="rgba(0,38,63,0.157)"/>
<path d="M 126 61 H 127 V 62 H 126 Z" fill="rgba(0,29,68,0.102)"/>
<path d="M 129 61 H 147 V 62 H 129 Z" fill="rgba(0,32,65,0.337)"/>
<path d="M 14 62 H 36 V 63 H 14 Z" fill="rgba(1,35,67,0.820)"/>
<path d="M 64 62 H 96 V 63 H 64 Z" fill="rgba(1,36,65,0.733)"/>
<path d="M 124 62 H 146 V 63 H 124 Z" fill="rgba(0,25,63,0.078)"/>
<path d="M 14 63 H 37 V 64 H 14 Z" fill="rgba(0,34,66,0.318)"/>
<path d="M 62 63 H 98 V 64 H 62 Z" fill="rgba(0,29,68,0.102)"/>
<path d="M 123 63 H 146 V 64 H 123 Z" fill="rgba(0,34,69,0.086)"/>
<path d="M 15 64 H 37 V 65 H 15 Z" fill="rgba(1,35,67,0.757)"/>
<path d="M 62 64 H 98 V 65 H 62 Z" fill="rgba(0,33,67,0.384)"/>
<path d="M 123 64 H 145 V 65 H 123 Z" fill="rgba(1,34,66,0.773)"/>
<path d="M 15 65 H 38 V 66 H 15 Z" fill="rgba(0,34,63,0.173)"/>
<path d="M 62 65 H 98 V 66 H 62 Z" fill="rgba(0,33,66,0.329)"/>
<path d="M 122 65 H 145 V 66 H 122 Z" fill="rgba(1,33,63,0.565)"/>
<path d="M 14 66 H 39 V 67 H 14 Z" fill="rgba(0,33,67,0.267)"/>
<path d="M 62 66 H 98 V 67 H 62 Z" fill="rgba(0,39,71,0.153)"/>
<path d="M 121 66 H 146 V 67 H 121 Z" fill="rgba(0,36,65,0.275)"/>
<path d="M 14 67 H 39 V 68 H 14 Z" fill="rgba(0,33,67,0.835)"/>
<path d="M 40 67 H 42 V 68 H 40 Z" fill="rgba(0,34,63,0.173)"/>
<path d="M 63 67 H 97 V 68 H 63 Z" fill="rgba(1,34,65,0.835)"/>
<path d="M 118 67 H 120 V 68 H 118 Z" fill="rgba(0,35,67,0.224)"/>
<path d="M 121 67 H 146 V 68 H 121 Z" fill="rgba(1,35,66,0.839)"/>
<path d="M 14 68 H 43 V 69 H 14 Z" fill="rgba(1,33,67,0.620)"/>
<path d="M 63 68 H 97 V 69 H 63 Z" fill="rgba(0,34,66,0.557)"/>
<path d="M 117 68 H 146 V 69 H 117 Z" fill="rgba(0,32,64,0.431)"/>
<path d="M 14 69 H 44 V 70 H 14 Z" fill="rgba(0,28,66,0.106)"/>
<path d="M 61 69 H 97 V 70 H 61 Z" fill="rgba(18,36,72,0.055)"/>
<path d="M 116 69 H 146 V 70 H 116 Z" fill="rgba(0,32,65,0.243)"/>
<path d="M 15 70 H 44 V 71 H 15 Z" fill="rgba(0,33,64,0.325)"/>
<path d="M 59 70 H 97 V 71 H 59 Z" fill="rgba(0,34,68,0.059)"/>
<path d="M 115 70 H 145 V 71 H 115 Z" fill="rgba(0,21,63,0.047)"/>
<path d="M 16 71 H 45 V 72 H 16 Z" fill="rgba(0,33,64,0.561)"/>
<path d="M 59 71 H 96 V 72 H 59 Z" fill="rgba(1,34,66,0.631)"/>
<path d="M 115 71 H 144 V 72 H 115 Z" fill="rgba(1,35,64,0.510)"/>
<path d="M 17 72 H 46 V 73 H 17 Z" fill="rgba(1,34,65,0.698)"/>
<path d="M 58 72 H 95 V 73 H 58 Z" fill="rgba(21,42,63,0.047)"/>
<path d="M 114 72 H 143 V 73 H 114 Z" fill="rgba(0,39,68,0.102)"/>
<path d="M 17 73 H 46 V 74 H 17 Z" fill="rgba(0,39,58,0.051)"/>
<path d="M 47 73 H 48 V 74 H 47 Z" fill="rgba(0,28,56,0.035)"/>
<path d="M 59 73 H 95 V 74 H 59 Z" fill="rgba(1,33,66,0.796)"/>
<path d="M 114 73 H 142 V 74 H 114 Z" fill="rgba(1,35,65,0.506)"/>
<path d="M 18 74 H 50 V 75 H 18 Z" fill="rgba(0,31,63,0.094)"/>
<path d="M 59 74 H 96 V 75 H 59 Z" fill="rgba(0,34,62,0.176)"/>
<path d="M 110 74 H 142 V 75 H 110 Z" fill="rgba(0,38,63,0.078)"/>
<path d="M 17 75 H 50 V 76 H 17 Z" fill="rgba(0,32,64,0.278)"/>
<path d="M 61 75 H 96 V 76 H 61 Z" fill="rgba(21,53,63,0.094)"/>
<path d="M 110 75 H 143 V 76 H 110 Z" fill="rgba(1,35,66,0.675)"/>
<path d="M 17 76 H 51 V 77 H 17 Z" fill="rgba(0,32,66,0.733)"/>
<path d="M 62 76 H 96 V 77 H 62 Z" fill="rgba(13,45,68,0.220)"/>
<path d="M 109 76 H 143 V 77 H 109 Z" fill="rgba(0,37,69,0.318)"/>
<path d="M 17 77 H 51 V 78 H 17 Z" fill="rgba(0,32,64,0.373)"/>
<path d="M 61 77 H 96 V 78 H 61 Z" fill="rgba(0,31,63,0.031)"/>
<path d="M 109 77 H 143 V 78 H 109 Z" fill="rgba(1,36,68,0.816)"/>
<path d="M 18 78 H 52 V 79 H 18 Z" fill="rgba(1,35,66,0.710)"/>
<path d="M 56 78 H 60 V 79 H 56 Z" fill="rgba(0,35,65,0.227)"/>
<path d="M 61 78 H 98 V 79 H 61 Z" fill="rgba(11,45,75,0.267)"/>
<path d="M 108 78 H 142 V 79 H 108 Z" fill="rgba(3,36,66,0.302)"/>
<path d="M 18 79 H 52 V 80 H 18 Z" fill="rgba(0,37,66,0.106)"/>
<path d="M 53 79 H 54 V 80 H 53 Z" fill="rgba(0,51,76,0.039)"/>
<path d="M 55 79 H 99 V 80 H 55 Z" fill="rgba(3,33,67,0.298)"/>
<path d="M 108 79 H 142 V 80 H 108 Z" fill="rgba(1,36,66,0.690)"/>
<path d="M 19 80 H 53 V 81 H 19 Z" fill="rgba(0,31,62,0.224)"/>
<path d="M 55 80 H 100 V 81 H 55 Z" fill="rgba(1,35,67,0.506)"/>
<path d="M 101 80 H 105 V 81 H 101 Z" fill="rgba(4,36,68,0.494)"/>
<path d="M 107 80 H 141 V 81 H 107 Z" fill="rgba(0,31,63,0.094)"/>
<path d="M 20 81 H 140 V 82 H 20 Z" fill="rgba(0,35,67,0.341)"/>
<path d="M 21 82 H 139 V 83 H 21 Z" fill="rgba(0,34,63,0.380)"/>
<path d="M 22 83 H 56 V 84 H 22 Z" fill="rgba(0,34,62,0.318)"/>
<path d="M 57 83 H 138 V 84 H 57 Z" fill="rgba(4,36,68,0.220)"/>
<path d="M 22 84 H 57 V 85 H 22 Z" fill="rgba(0,31,67,0.251)"/>
<path d="M 58 84 H 138 V 85 H 58 Z" fill="rgba(0,30,61,0.129)"/>
<path d="M 21 85 H 57 V 86 H 21 Z" fill="rgba(0,32,64,0.278)"/>
<path d="M 59 85 H 139 V 86 H 59 Z" fill="rgba(15,45,60,0.067)"/>
<path d="M 21 86 H 58 V 87 H 21 Z" fill="rgba(0,30,65,0.227)"/>
<path d="M 59 86 H 139 V 87 H 59 Z" fill="rgba(3,34,64,0.263)"/>
<path d="M 22 87 H 138 V 88 H 22 Z" fill="rgba(0,35,66,0.510)"/>
<path d="M 23 88 H 137 V 89 H 23 Z" fill="rgba(1,35,67,0.612)"/>
<path d="M 24 89 H 136 V 90 H 24 Z" fill="rgba(1,35,67,0.596)"/>
<path d="M 25 90 H 135 V 91 H 25 Z" fill="rgba(0,35,65,0.455)"/>
<path d="M 26 91 H 134 V 92 H 26 Z" fill="rgba(0,34,65,0.259)"/>
<path d="M 27 92 H 133 V 93 H 27 Z" fill="rgba(0,37,63,0.188)"/>
<path d="M 26 93 H 134 V 94 H 26 Z" fill="rgba(0,31,62,0.161)"/>
<path d="M 26 94 H 134 V 95 H 26 Z" fill="rgba(0,32,64,0.216)"/>
<path d="M 27 95 H 133 V 96 H 27 Z" fill="rgba(0,35,67,0.427)"/>
<path d="M 28 96 H 132 V 97 H 28 Z" fill="rgba(0,34,65,0.290)"/>
<path d="M 29 97 H 131 V 98 H 29 Z" fill="rgba(0,29,68,0.102)"/>
<path d="M 31 98 H 129 V 99 H 31 Z" fill="rgba(3,36,69,0.333)"/>
<path d="M 32 99 H 128 V 100 H 32 Z" fill="rgba(0,21,63,0.047)"/>
<path d="M 34 100 H 126 V 101 H 34 Z" fill="rgba(0,40,61,0.098)"/>
<path d="M 34 101 H 126 V 102 H 34 Z" fill="rgba(0,32,68,0.247)"/>
<path d="M 34 102 H 126 V 103 H 34 Z" fill="rgba(1,34,66,0.663)"/>
<path d="M 34 103 H 126 V 104 H 34 Z" fill="rgba(0,34,63,0.235)"/>
<path d="M 35 104 H 124 V 105 H 35 Z" fill="rgba(0,30,65,0.200)"/>
<path d="M 37 105 H 125 V 106 H 37 Z" fill="rgba(2,36,66,0.498)"/>
<path d="M 38 106 H 125 V 107 H 38 Z" fill="rgba(0,36,72,0.137)"/>
<path d="M 40 107 H 125 V 108 H 40 Z" fill="rgba(0,39,63,0.125)"/>
<path d="M 40 108 H 125 V 109 H 40 Z" fill="rgba(0,31,63,0.063)"/>
<path d="M 40 109 H 126 V 110 H 40 Z" fill="rgba(0,34,63,0.204)"/>
<path d="M 41 110 H 126 V 111 H 41 Z" fill="rgba(0,36,68,0.435)"/>
<path d="M 42 111 H 126 V 112 H 42 Z" fill="rgba(0,25,63,0.078)"/>
<path d="M 45 112 H 126 V 113 H 45 Z" fill="rgba(3,38,66,0.314)"/>
<path d="M 44 113 H 126 V 114 H 44 Z" fill="rgba(0,27,63,0.110)"/>
<path d="M 43 114 H 126 V 115 H 43 Z" fill="rgba(0,31,63,0.094)"/>
<path d="M 42 115 H 126 V 116 H 42 Z" fill="rgba(0,21,63,0.047)"/>
<path d="M 42 116 H 126 V 117 H 42 Z" fill="rgba(3,36,69,0.667)"/>
<path d="M 41 117 H 126 V 118 H 41 Z" fill="rgba(2,35,66,0.451)"/>
<path d="M 40 118 H 126 V 119 H 40 Z" fill="rgba(0,35,70,0.114)"/>
<path d="M 40 119 H 50 V 120 H 40 Z" fill="rgba(1,33,65,0.502)"/>
<path d="M 54 119 H 125 V 120 H 54 Z" fill="rgba(2,34,64,0.494)"/>
<path d="M 40 120 H 48 V 121 H 40 Z" fill="rgba(0,31,61,0.471)"/>
<path d="M 54 120 H 125 V 121 H 54 Z" fill="rgba(2,36,65,0.412)"/>
<path d="M 40 121 H 45 V 122 H 40 Z" fill="rgba(0,25,51,0.039)"/>
<path d="M 54 121 H 125 V 122 H 54 Z" fill="rgba(0,36,65,0.137)"/>
<path d="M 55 122 H 124 V 123 H 55 Z" fill="rgba(1,33,67,0.506)"/>
<path d="M 56 123 H 124 V 124 H 56 Z" fill="rgba(0,35,67,0.447)"/>
<path d="M 57 124 H 123 V 125 H 57 Z" fill="rgba(0,30,60,0.067)"/>
<path d="M 62 125 H 123 V 126 H 62 Z" fill="rgba(5,39,67,0.714)"/>
<path d="M 61 126 H 124 V 127 H 61 Z" fill="rgba(6,41,68,0.145)"/>
<path d="M 61 127 H 127 V 128 H 61 Z" fill="rgba(5,39,68,0.353)"/>
<path d="M 61 128 H 71 V 129 H 61 Z" fill="rgba(5,39,68,0.529)"/>
<path d="M 74 128 H 85 V 129 H 74 Z" fill="rgba(0,36,69,0.275)"/>
<path d="M 87 128 H 129 V 129 H 87 Z" fill="rgba(3,35,66,0.514)"/>
<path d="M 61 129 H 70 V 130 H 61 Z" fill="rgba(4,39,69,0.659)"/>
<path d="M 75 129 H 84 V 130 H 75 Z" fill="rgba(1,34,65,0.745)"/>
<path d="M 88 129 H 130 V 130 H 88 Z" fill="rgba(4,35,67,0.475)"/>
<path d="M 61 130 H 68 V 131 H 61 Z" fill="rgba(4,38,69,0.706)"/>
<path d="M 75 130 H 84 V 131 H 75 Z" fill="rgba(2,35,66,0.420)"/>
<path d="M 89 130 H 131 V 131 H 89 Z" fill="rgba(2,34,64,0.373)"/>
<path d="M 61 131 H 68 V 132 H 61 Z" fill="rgba(2,37,67,0.698)"/>
<path d="M 75 131 H 84 V 132 H 75 Z" fill="rgba(4,34,63,0.235)"/>
<path d="M 90 131 H 132 V 132 H 90 Z" fill="rgba(5,37,65,0.184)"/>
<path d="M 61 132 H 67 V 133 H 61 Z" fill="rgba(0,34,68,0.631)"/>
<path d="M 75 132 H 84 V 133 H 75 Z" fill="rgba(0,32,65,0.122)"/>
<path d="M 92 132 H 115 V 133 H 92 Z" fill="rgba(4,38,67,0.416)"/>
<path d="M 116 132 H 133 V 133 H 116 Z" fill="rgba(0,25,51,0.039)"/>
<path d="M 61 133 H 66 V 134 H 61 Z" fill="rgba(2,34,67,0.459)"/>
<path d="M 75 133 H 83 V 134 H 75 Z" fill="rgba(0,31,63,0.031)"/>
<path d="M 93 133 H 113 V 134 H 93 Z" fill="rgba(18,36,54,0.055)"/>
<path d="M 117 133 H 134 V 134 H 117 Z" fill="rgba(0,31,63,0.063)"/>
<path d="M 61 134 H 65 V 135 H 61 Z" fill="rgba(0,34,59,0.118)"/>
<path d="M 76 134 H 83 V 135 H 76 Z" fill="rgba(0,33,62,0.541)"/>
<path d="M 96 134 H 111 V 135 H 96 Z" fill="rgba(10,36,67,0.192)"/>
<path d="M 118 134 H 135 V 135 H 118 Z" fill="rgba(9,36,63,0.220)"/>
<path d="M 62 135 H 64 V 136 H 62 Z" fill="rgba(0,33,66,0.090)"/>
<path d="M 77 135 H 82 V 136 H 77 Z" fill="rgba(0,33,63,0.502)"/>
<path d="M 100 135 H 107 V 136 H 100 Z" fill="rgba(8,35,61,0.114)"/>
<path d="M 118 135 H 136 V 136 H 118 Z" fill="rgba(5,39,62,0.176)"/>
<path d="M 79 136 H 80 V 137 H 79 Z" fill="rgba(0,46,69,0.043)"/>
<path d="M 119 136 H 136 V 137 H 119 Z" fill="rgba(3,36,68,0.800)"/>
<path d="M 119 137 H 137 V 138 H 119 Z" fill="rgba(5,37,63,0.188)"/>
<path d="M 120 138 H 138 V 139 H 120 Z" fill="rgba(4,35,65,0.227)"/>
<path d="M 121 139 H 139 V 140 H 121 Z" fill="rgba(3,33,63,0.298)"/>
<path d="M 122 140 H 140 V 141 H 122 Z" fill="rgba(3,34,66,0.318)"/>
<path d="M 123 141 H 141 V 142 H 123 Z" fill="rgba(2,35,63,0.365)"/>
<path d="M 124 142 H 142 V 143 H 124 Z" fill="rgba(2,36,64,0.388)"/>
<path d="M 125 143 H 143 V 144 H 125 Z" fill="rgba(4,36,63,0.439)"/>
<path d="M 126 144 H 144 V 145 H 126 Z" fill="rgba(4,34,65,0.459)"/>
<path d="M 127 145 H 144 V 146 H 127 Z" fill="rgba(3,36,65,0.518)"/>
<path d="M 128 146 H 144 V 147 H 128 Z" fill="rgba(3,36,63,0.549)"/>
<path d="M 129 147 H 144 V 148 H 129 Z" fill="rgba(3,36,64,0.604)"/>
<path d="M 130 148 H 144 V 149 H 130 Z" fill="rgba(4,37,65,0.639)"/>
<path d="M 131 149 H 144 V 150 H 131 Z" fill="rgba(2,36,64,0.678)"/>
<path d="M 132 150 H 143 V 151 H 132 Z" fill="rgba(4,36,64,0.710)"/>
<path d="M 132 151 H 142 V 152 H 132 Z" fill="rgba(0,25,51,0.039)"/>
<path d="M 133 152 H 141 V 153 H 133 Z" fill="rgba(0,25,51,0.039)"/>
<path d="M 135 153 H 140 V 154 H 135 Z" fill="rgba(9,36,63,0.220)"/>
</svg>
