<?xml version="1.0" encoding="UTF-8"?>
<svg xmlns="http://www.w3.org/2000/svg" width="160" height="160" viewBox="0 0 160 160" role="img" aria-labelledby="svg-title svg-desc">
<title id="svg-title">Vectorized image</title><desc id="svg-desc">Raster image converted to SVG paths by Agent Toolkit.</desc>
<path d="M 44 18 H 47 V 19 H 44 Z" fill="rgba(226,198,170,0.035)"/>
<path d="M 44 19 H 48 V 20 H 44 Z" fill="rgba(242,230,212,0.498)"/>
<path d="M 42 20 H 50 V 21 H 42 Z" fill="rgba(241,228,201,0.149)"/>
<path d="M 52 20 H 54 V 21 H 52 Z" fill="rgba(242,220,211,0.231)"/>
<path d="M 42 21 H 55 V 22 H 42 Z" fill="rgba(247,228,198,0.569)"/>
<path d="M 59 21 H 61 V 22 H 59 Z" fill="rgba(229,204,191,0.078)"/>
<path d="M 41 22 H 56 V 23 H 41 Z" fill="rgba(223,159,159,0.031)"/>
<path d="M 58 22 H 63 V 23 H 58 Z" fill="rgba(245,226,212,0.212)"/>
<path d="M 41 23 H 64 V 24 H 41 Z" fill="rgba(244,218,195,0.388)"/>
<path d="M 41 24 H 64 V 25 H 41 Z" fill="rgba(243,209,181,0.506)"/>
<path d="M 67 24 H 71 V 25 H 67 Z" fill="rgba(246,229,216,0.231)"/>
<path d="M 41 25 H 72 V 26 H 41 Z" fill="rgba(162,92,81,0.086)"/>
<path d="M 42 26 H 73 V 27 H 42 Z" fill="rgba(227,198,173,0.443)"/>
<path d="M 42 27 H 73 V 28 H 42 Z" fill="rgba(248,227,205,0.443)"/>
<path d="M 76 27 H 80 V 28 H 76 Z" fill="rgba(246,240,230,0.494)"/>
<path d="M 42 28 H 80 V 29 H 42 Z" fill="rgba(253,239,217,0.796)"/>
<path d="M 40 29 H 81 V 30 H 40 Z" fill="rgba(249,236,219,0.369)"/>
<path d="M 85 29 H 86 V 30 H 85 Z" fill="rgba(238,204,170,0.059)"/>
<path d="M 39 30 H 83 V 31 H 39 Z" fill="rgba(238,187,136,0.059)"/>
<path d="M 84 30 H 89 V 31 H 84 Z" fill="rgba(244,233,226,0.380)"/>
<path d="M 39 31 H 90 V 32 H 39 Z" fill="rgba(244,227,202,0.286)"/>
<path d="M 39 32 H 90 V 33 H 39 Z" fill="rgba(249,234,211,0.576)"/>
<path d="M 94 32 H 95 V 33 H 94 Z" fill="rgba(240,225,211,0.137)"/>
<path d="M 39 33 H 98 V 34 H 39 Z" fill="rgba(236,191,162,0.376)"/>
<path d="M 40 34 H 98 V 35 H 40 Z" fill="rgba(213,160,133,0.561)"/>
<path d="M 40 35 H 99 V 36 H 40 Z" fill="rgba(234,192,172,0.145)"/>
<path d="M 103 35 H 104 V 36 H 103 Z" fill="rgba(242,230,218,0.165)"/>
<path d="M 40 36 H 107 V 37 H 40 Z" fill="rgba(249,210,194,0.180)"/>
<path d="M 40 37 H 108 V 38 H 40 Z" fill="rgba(251,234,213,0.576)"/>
<path d="M 38 38 H 108 V 39 H 38 Z" fill="rgba(247,235,212,0.404)"/>
<path d="M 112 38 H 115 V 39 H 112 Z" fill="rgba(247,238,226,0.416)"/>
<path d="M 37 39 H 116 V 40 H 37 Z" fill="rgba(232,210,188,0.090)"/>
<path d="M 37 40 H 117 V 41 H 37 Z" fill="rgba(247,231,212,0.424)"/>
<path d="M 37 41 H 117 V 42 H 37 Z" fill="rgba(249,238,219,0.784)"/>
<path d="M 120 41 H 123 V 42 H 120 Z" fill="rgba(246,234,213,0.243)"/>
<path d="M 37 42 H 125 V 43 H 37 Z" fill="rgba(238,204,180,0.608)"/>
<path d="M 37 43 H 125 V 44 H 37 Z" fill="rgba(69,0,23,0.043)"/>
<path d="M 38 44 H 126 V 45 H 38 Z" fill="rgba(224,181,150,0.298)"/>
<path d="M 128 44 H 130 V 45 H 128 Z" fill="rgba(212,191,170,0.047)"/>
<path d="M 38 45 H 132 V 46 H 38 Z" fill="rgba(237,220,209,0.286)"/>
<path d="M 38 46 H 132 V 47 H 38 Z" fill="rgba(246,238,223,0.667)"/>
<path d="M 36 47 H 132 V 48 H 36 Z" fill="rgba(241,225,212,0.306)"/>
<path d="M 35 48 H 133 V 49 H 35 Z" fill="rgba(242,226,202,0.247)"/>
<path d="M 35 49 H 133 V 50 H 35 Z" fill="rgba(247,229,206,0.706)"/>
<path d="M 34 50 H 133 V 51 H 34 Z" fill="rgba(231,173,150,0.086)"/>
<path d="M 34 51 H 133 V 52 H 34 Z" fill="rgba(238,204,187,0.059)"/>
<path d="M 35 52 H 132 V 53 H 35 Z" fill="rgba(153,121,113,0.247)"/>
<path d="M 36 53 H 132 V 54 H 36 Z" fill="rgba(208,178,158,0.302)"/>
<path d="M 36 54 H 131 V 55 H 36 Z" fill="rgba(233,212,191,0.094)"/>
<path d="M 36 55 H 131 V 56 H 36 Z" fill="rgba(247,225,209,0.376)"/>
<path d="M 34 56 H 130 V 57 H 34 Z" fill="rgba(236,182,163,0.055)"/>
<path d="M 33 57 H 131 V 58 H 33 Z" fill="rgba(243,219,200,0.255)"/>
<path d="M 33 58 H 132 V 59 H 33 Z" fill="rgba(246,226,202,0.702)"/>
<path d="M 32 59 H 132 V 60 H 32 Z" fill="rgba(218,182,170,0.082)"/>
<path d="M 32 60 H 132 V 61 H 32 Z" fill="rgba(224,183,153,0.098)"/>
<path d="M 33 61 H 131 V 62 H 33 Z" fill="rgba(180,131,115,0.243)"/>
<path d="M 34 62 H 131 V 63 H 34 Z" fill="rgba(207,166,149,0.294)"/>
<path d="M 34 63 H 129 V 64 H 34 Z" fill="rgba(236,200,182,0.110)"/>
<path d="M 34 64 H 129 V 65 H 34 Z" fill="rgba(240,218,196,0.275)"/>
<path d="M 33 65 H 128 V 66 H 33 Z" fill="rgba(218,163,145,0.055)"/>
<path d="M 31 66 H 129 V 67 H 31 Z" fill="rgba(242,229,216,0.078)"/>
<path d="M 31 67 H 129 V 68 H 31 Z" fill="rgba(244,227,203,0.369)"/>
<path d="M 31 68 H 130 V 69 H 31 Z" fill="rgba(249,233,209,0.710)"/>
<path d="M 30 69 H 130 V 70 H 30 Z" fill="rgba(239,207,183,0.125)"/>
<path d="M 30 70 H 129 V 71 H 30 Z" fill="rgba(230,206,188,0.165)"/>
<path d="M 31 71 H 129 V 72 H 31 Z" fill="rgba(182,141,126,0.388)"/>
<path d="M 32 72 H 129 V 73 H 32 Z" fill="rgba(231,180,154,0.459)"/>
<path d="M 32 73 H 127 V 74 H 32 Z" fill="rgba(244,209,188,0.286)"/>
<path d="M 32 74 H 126 V 75 H 32 Z" fill="rgba(248,224,206,0.498)"/>
<path d="M 31 75 H 126 V 76 H 31 Z" fill="rgba(241,222,209,0.153)"/>
<path d="M 29 76 H 127 V 77 H 29 Z" fill="rgba(242,218,182,0.082)"/>
<path d="M 29 77 H 128 V 78 H 29 Z" fill="rgba(243,226,206,0.349)"/>
<path d="M 29 78 H 128 V 79 H 29 Z" fill="rgba(248,234,213,0.776)"/>
<path d="M 28 79 H 128 V 80 H 28 Z" fill="rgba(236,206,176,0.165)"/>
<path d="M 28 80 H 127 V 81 H 28 Z" fill="rgba(255,236,218,0.055)"/>
<path d="M 29 81 H 127 V 82 H 29 Z" fill="rgba(111,98,98,0.153)"/>
<path d="M 30 82 H 125 V 83 H 30 Z" fill="rgba(232,207,192,0.318)"/>
<path d="M 30 83 H 125 V 84 H 30 Z" fill="rgba(244,233,213,0.365)"/>
<path d="M 30 84 H 124 V 85 H 30 Z" fill="rgba(247,233,211,0.784)"/>
<path d="M 28 85 H 124 V 86 H 28 Z" fill="rgba(242,225,204,0.239)"/>
<path d="M 27 86 H 125 V 87 H 27 Z" fill="rgba(239,204,178,0.196)"/>
<path d="M 27 87 H 125 V 88 H 27 Z" fill="rgba(246,232,209,0.486)"/>
<path d="M 26 88 H 126 V 89 H 26 Z" fill="rgba(238,204,170,0.059)"/>
<path d="M 26 89 H 125 V 90 H 26 Z" fill="rgba(236,218,191,0.110)"/>
<path d="M 27 90 H 125 V 91 H 27 Z" fill="rgba(183,130,108,0.322)"/>
<path d="M 28 91 H 124 V 92 H 28 Z" fill="rgba(225,179,152,0.506)"/>
<path d="M 28 92 H 123 V 93 H 28 Z" fill="rgba(249,222,199,0.341)"/>
<path d="M 28 93 H 122 V 94 H 28 Z" fill="rgba(250,235,217,0.616)"/>
<path d="M 27 94 H 122 V 95 H 27 Z" fill="rgba(245,228,215,0.302)"/>
<path d="M 25 95 H 123 V 96 H 25 Z" fill="rgba(245,225,205,0.102)"/>
<path d="M 25 96 H 123 V 97 H 25 Z" fill="rgba(246,229,205,0.467)"/>
<path d="M 25 97 H 123 V 98 H 25 Z" fill="rgba(248,238,216,0.827)"/>
<path d="M 131 97 H 133 V 98 H 131 Z" fill="rgba(204,181,221,0.176)"/>
<path d="M 24 98 H 123 V 99 H 24 Z" fill="rgba(234,204,178,0.196)"/>
<path d="M 129 98 H 134 V 99 H 129 Z" fill="rgba(198,170,216,0.282)"/>
<path d="M 24 99 H 123 V 100 H 24 Z" fill="rgba(242,216,204,0.078)"/>
<path d="M 127 99 H 135 V 100 H 127 Z" fill="rgba(184,161,212,0.353)"/>
<path d="M 25 100 H 123 V 101 H 25 Z" fill="rgba(85,56,66,0.106)"/>
<path d="M 124 100 H 135 V 101 H 124 Z" fill="rgba(19,0,137,0.051)"/>
<path d="M 26 101 H 121 V 102 H 26 Z" fill="rgba(242,202,175,0.416)"/>
<path d="M 122 101 H 136 V 102 H 122 Z" fill="rgba(92,57,162,0.086)"/>
<path d="M 26 102 H 136 V 103 H 26 Z" fill="rgba(244,219,193,0.475)"/>
<path d="M 25 103 H 136 V 104 H 25 Z" fill="rgba(191,95,31,0.031)"/>
<path d="M 24 104 H 136 V 105 H 24 Z" fill="rgba(247,235,224,0.259)"/>
<path d="M 24 105 H 136 V 106 H 24 Z" fill="rgba(250,232,207,0.835)"/>
<path d="M 23 106 H 137 V 107 H 23 Z" fill="rgba(240,215,190,0.200)"/>
<path d="M 23 107 H 137 V 108 H 23 Z" fill="rgba(243,223,199,0.608)"/>
<path d="M 23 108 H 137 V 109 H 23 Z" fill="rgba(242,208,182,0.541)"/>
<path d="M 23 109 H 137 V 110 H 23 Z" fill="rgba(134,80,67,0.075)"/>
<path d="M 24 110 H 138 V 111 H 24 Z" fill="rgba(36,36,48,0.082)"/>
<path d="M 25 111 H 138 V 112 H 25 Z" fill="rgba(205,172,148,0.243)"/>
<path d="M 26 112 H 138 V 113 H 26 Z" fill="rgba(71,66,66,0.196)"/>
<path d="M 28 113 H 30 V 114 H 28 Z" fill="rgba(46,46,23,0.043)"/>
<path d="M 34 113 H 138 V 114 H 34 Z" fill="rgba(180,155,145,0.200)"/>
<path d="M 35 114 H 138 V 115 H 35 Z" fill="rgba(196,156,140,0.498)"/>
<path d="M 35 115 H 41 V 116 H 35 Z" fill="rgba(0,0,0,0.031)"/>
<path d="M 44 115 H 138 V 116 H 44 Z" fill="rgba(225,198,179,0.620)"/>
<path d="M 38 116 H 40 V 117 H 38 Z" fill="rgba(63,63,47,0.063)"/>
<path d="M 44 116 H 138 V 117 H 44 Z" fill="rgba(232,203,181,0.271)"/>
<path d="M 45 117 H 138 V 118 H 45 Z" fill="rgba(103,77,82,0.231)"/>
<path d="M 46 118 H 50 V 119 H 46 Z" fill="rgba(92,92,69,0.043)"/>
<path d="M 53 118 H 138 V 119 H 53 Z" fill="rgba(82,74,74,0.122)"/>
<path d="M 54 119 H 137 V 120 H 54 Z" fill="rgba(226,197,177,0.490)"/>
<path d="M 54 120 H 137 V 121 H 54 Z" fill="rgba(95,63,63,0.063)"/>
<path d="M 56 121 H 60 V 122 H 56 Z" fill="rgba(51,38,38,0.078)"/>
<path d="M 63 121 H 137 V 122 H 63 Z" fill="rgba(233,217,195,0.608)"/>
<path d="M 63 122 H 137 V 123 H 63 Z" fill="rgba(236,209,188,0.376)"/>
<path d="M 64 123 H 136 V 124 H 64 Z" fill="rgba(117,92,95,0.357)"/>
<path d="M 65 124 H 69 V 125 H 65 Z" fill="rgba(53,67,53,0.075)"/>
<path d="M 73 124 H 136 V 125 H 73 Z" fill="rgba(185,154,139,0.129)"/>
<path d="M 74 125 H 135 V 126 H 74 Z" fill="rgba(217,183,167,0.561)"/>
<path d="M 74 126 H 80 V 127 H 74 Z" fill="rgba(54,36,36,0.055)"/>
<path d="M 83 126 H 134 V 127 H 83 Z" fill="rgba(191,164,151,0.455)"/>
<path d="M 77 127 H 79 V 128 H 77 Z" fill="rgba(56,70,56,0.071)"/>
<path d="M 83 127 H 134 V 128 H 83 Z" fill="rgba(233,196,182,0.137)"/>
<path d="M 84 128 H 133 V 129 H 84 Z" fill="rgba(170,132,129,0.318)"/>
<path d="M 85 129 H 90 V 130 H 85 Z" fill="rgba(68,58,68,0.102)"/>
<path d="M 91 129 H 132 V 130 H 91 Z" fill="rgba(211,203,230,0.737)"/>
<path d="M 90 130 H 131 V 131 H 90 Z" fill="rgba(144,129,184,0.271)"/>
<path d="M 90 131 H 130 V 132 H 90 Z" fill="rgba(82,63,140,0.157)"/>
<path d="M 91 132 H 128 V 133 H 91 Z" fill="rgba(74,55,137,0.576)"/>
<path d="M 91 133 H 125 V 134 H 91 Z" fill="rgba(198,141,170,0.071)"/>
<path d="M 93 134 H 110 V 135 H 93 Z" fill="rgba(88,55,134,0.431)"/>
<path d="M 111 134 H 122 V 135 H 111 Z" fill="rgba(123,87,145,0.137)"/>
<path d="M 94 135 H 100 V 136 H 94 Z" fill="rgba(123,96,140,0.114)"/>
<path d="M 102 135 H 110 V 136 H 102 Z" fill="rgba(177,148,188,0.800)"/>
<path d="M 102 136 H 110 V 137 H 102 Z" fill="rgba(70,45,121,0.525)"/>
<path d="M 102 137 H 110 V 138 H 102 Z" fill="rgba(159,127,159,0.031)"/>
<path d="M 104 138 H 108 V 139 H 104 Z" fill="rgba(226,170,170,0.035)"/>
</svg>
