<?xml version="1.0" encoding="UTF-8"?>
<svg xmlns="http://www.w3.org/2000/svg" width="160" height="160" viewBox="0 0 160 160" role="img" aria-labelledby="svg-title svg-desc">
<title id="svg-title">Vectorized image</title><desc id="svg-desc">Raster image converted to SVG paths by Agent Toolkit.</desc>
<path d="M 92 4 H 95 V 5 H 92 Z" fill="rgba(0,22,67,0.224)"/>
<path d="M 90 5 H 96 V 6 H 90 Z" fill="rgba(0,25,70,0.157)"/>
<path d="M 89 6 H 96 V 7 H 89 Z" fill="rgba(2,25,67,0.475)"/>
<path d="M 87 7 H 96 V 8 H 87 Z" fill="rgba(0,20,61,0.098)"/>
<path d="M 107 7 H 111 V 8 H 107 Z" fill="rgba(0,22,60,0.133)"/>
<path d="M 86 8 H 97 V 9 H 86 Z" fill="rgba(0,26,67,0.224)"/>
<path d="M 106 8 H 112 V 9 H 106 Z" fill="rgba(0,25,66,0.239)"/>
<path d="M 85 9 H 97 V 10 H 85 Z" fill="rgba(3,26,68,0.263)"/>
<path d="M 105 9 H 112 V 10 H 105 Z" fill="rgba(2,26,68,0.337)"/>
<path d="M 84 10 H 97 V 11 H 84 Z" fill="rgba(0,26,63,0.267)"/>
<path d="M 104 10 H 112 V 11 H 104 Z" fill="rgba(2,25,68,0.478)"/>
<path d="M 83 11 H 97 V 12 H 83 Z" fill="rgba(0,26,65,0.153)"/>
<path d="M 103 11 H 112 V 12 H 103 Z" fill="rgba(1,25,67,0.592)"/>
<path d="M 82 12 H 97 V 13 H 82 Z" fill="rgba(0,21,63,0.047)"/>
<path d="M 101 12 H 112 V 13 H 101 Z" fill="rgba(0,21,63,0.047)"/>
<path d="M 82 13 H 97 V 14 H 82 Z" fill="rgba(1,24,65,0.612)"/>
<path d="M 100 13 H 112 V 14 H 100 Z" fill="rgba(0,26,61,0.114)"/>
<path d="M 81 14 H 97 V 15 H 81 Z" fill="rgba(0,26,67,0.267)"/>
<path d="M 99 14 H 112 V 15 H 99 Z" fill="rgba(0,24,60,0.165)"/>
<path d="M 81 15 H 97 V 16 H 81 Z" fill="rgba(0,25,66,0.816)"/>
<path d="M 98 15 H 112 V 16 H 98 Z" fill="rgba(0,22,63,0.220)"/>
<path d="M 80 16 H 96 V 17 H 80 Z" fill="rgba(0,25,65,0.349)"/>
<path d="M 97 16 H 112 V 17 H 97 Z" fill="rgba(0,25,62,0.271)"/>
<path d="M 80 17 H 112 V 18 H 80 Z" fill="rgba(1,25,65,0.796)"/>
<path d="M 77 18 H 112 V 19 H 77 Z" fill="rgba(0,26,67,0.075)"/>
<path d="M 73 19 H 112 V 20 H 73 Z" fill="rgba(0,17,68,0.059)"/>
<path d="M 71 20 H 111 V 21 H 71 Z" fill="rgba(0,26,71,0.267)"/>
<path d="M 69 21 H 111 V 22 H 69 Z" fill="rgba(0,23,69,0.376)"/>
<path d="M 67 22 H 111 V 23 H 67 Z" fill="rgba(0,26,69,0.373)"/>
<path d="M 65 23 H 110 V 24 H 65 Z" fill="rgba(0,21,65,0.227)"/>
<path d="M 63 24 H 109 V 25 H 63 Z" fill="rgba(0,25,76,0.039)"/>
<path d="M 62 25 H 109 V 26 H 62 Z" fill="rgba(0,27,70,0.184)"/>
<path d="M 61 26 H 109 V 27 H 61 Z" fill="rgba(0,25,67,0.357)"/>
<path d="M 60 27 H 110 V 28 H 60 Z" fill="rgba(0,24,67,0.490)"/>
<path d="M 59 28 H 111 V 29 H 59 Z" fill="rgba(1,26,66,0.569)"/>
<path d="M 58 29 H 112 V 30 H 58 Z" fill="rgba(1,26,67,0.576)"/>
<path d="M 57 30 H 117 V 31 H 57 Z" fill="rgba(1,24,67,0.537)"/>
<path d="M 56 31 H 117 V 32 H 56 Z" fill="rgba(0,25,66,0.435)"/>
<path d="M 55 32 H 117 V 33 H 55 Z" fill="rgba(0,26,65,0.306)"/>
<path d="M 54 33 H 116 V 34 H 54 Z" fill="rgba(0,26,67,0.149)"/>
<path d="M 53 34 H 115 V 35 H 53 Z" fill="rgba(0,26,67,0.075)"/>
<path d="M 53 35 H 114 V 36 H 53 Z" fill="rgba(1,26,67,0.761)"/>
<path d="M 51 36 H 115 V 37 H 51 Z" fill="rgba(0,25,51,0.039)"/>
<path d="M 50 37 H 115 V 38 H 50 Z" fill="rgba(0,23,69,0.129)"/>
<path d="M 49 38 H 116 V 39 H 49 Z" fill="rgba(0,25,68,0.396)"/>
<path d="M 41 39 H 43 V 40 H 41 Z" fill="rgba(0,22,66,0.090)"/>
<path d="M 46 39 H 116 V 40 H 46 Z" fill="rgba(0,23,69,0.129)"/>
<path d="M 40 40 H 117 V 41 H 40 Z" fill="rgba(0,17,68,0.059)"/>
<path d="M 41 41 H 117 V 42 H 41 Z" fill="rgba(0,23,65,0.518)"/>
<path d="M 42 42 H 117 V 43 H 42 Z" fill="rgba(0,23,66,0.510)"/>
<path d="M 43 43 H 117 V 44 H 43 Z" fill="rgba(0,24,67,0.208)"/>
<path d="M 45 44 H 117 V 45 H 45 Z" fill="rgba(0,21,63,0.047)"/>
<path d="M 44 45 H 116 V 46 H 44 Z" fill="rgba(0,26,68,0.306)"/>
<path d="M 42 46 H 116 V 47 H 42 Z" fill="rgba(0,26,65,0.153)"/>
<path d="M 40 47 H 116 V 48 H 40 Z" fill="rgba(0,25,51,0.039)"/>
<path d="M 39 48 H 117 V 49 H 39 Z" fill="rgba(0,23,65,0.259)"/>
<path d="M 38 49 H 117 V 50 H 38 Z" fill="rgba(0,25,66,0.510)"/>
<path d="M 37 50 H 118 V 51 H 37 Z" fill="rgba(1,25,68,0.659)"/>
<path d="M 36 51 H 118 V 52 H 36 Z" fill="rgba(1,24,66,0.690)"/>
<path d="M 35 52 H 119 V 53 H 35 Z" fill="rgba(1,25,66,0.600)"/>
<path d="M 34 53 H 119 V 54 H 34 Z" fill="rgba(0,24,66,0.333)"/>
<path d="M 33 54 H 120 V 55 H 33 Z" fill="rgba(0,21,63,0.047)"/>
<path d="M 33 55 H 120 V 56 H 33 Z" fill="rgba(2,24,66,0.404)"/>
<path d="M 33 56 H 121 V 57 H 33 Z" fill="rgba(1,24,67,0.769)"/>
<path d="M 32 57 H 122 V 58 H 32 Z" fill="rgba(0,20,71,0.098)"/>
<path d="M 32 58 H 37 V 59 H 32 Z" fill="rgba(0,22,68,0.220)"/>
<path d="M 38 58 H 122 V 59 H 38 Z" fill="rgba(0,24,67,0.612)"/>
<path d="M 32 59 H 36 V 60 H 32 Z" fill="rgba(0,22,66,0.271)"/>
<path d="M 37 59 H 123 V 60 H 37 Z" fill="rgba(0,23,65,0.502)"/>
<path d="M 32 60 H 35 V 61 H 32 Z" fill="rgba(0,25,69,0.231)"/>
<path d="M 36 60 H 123 V 61 H 36 Z" fill="rgba(0,23,64,0.216)"/>
<path d="M 32 61 H 35 V 62 H 32 Z" fill="rgba(0,24,65,0.122)"/>
<path d="M 36 61 H 124 V 62 H 36 Z" fill="rgba(1,24,66,0.773)"/>
<path d="M 33 62 H 34 V 63 H 33 Z" fill="rgba(0,15,63,0.063)"/>
<path d="M 35 62 H 125 V 63 H 35 Z" fill="rgba(0,25,68,0.353)"/>
<path d="M 34 63 H 125 V 64 H 34 Z" fill="rgba(0,31,63,0.031)"/>
<path d="M 34 64 H 126 V 65 H 34 Z" fill="rgba(0,25,66,0.588)"/>
<path d="M 32 65 H 126 V 66 H 32 Z" fill="rgba(0,25,51,0.039)"/>
<path d="M 31 66 H 127 V 67 H 31 Z" fill="rgba(0,18,72,0.055)"/>
<path d="M 30 67 H 128 V 68 H 30 Z" fill="rgba(0,21,63,0.047)"/>
<path d="M 30 68 H 128 V 69 H 30 Z" fill="rgba(1,24,66,0.690)"/>
<path d="M 29 69 H 129 V 70 H 29 Z" fill="rgba(0,24,67,0.522)"/>
<path d="M 28 70 H 130 V 71 H 28 Z" fill="rgba(0,26,67,0.267)"/>
<path d="M 27 71 H 130 V 72 H 27 Z" fill="rgba(0,28,56,0.035)"/>
<path d="M 27 72 H 86 V 73 H 27 Z" fill="rgba(0,25,67,0.431)"/>
<path d="M 93 72 H 130 V 73 H 93 Z" fill="rgba(0,26,69,0.302)"/>
<path d="M 26 73 H 86 V 74 H 26 Z" fill="rgba(0,23,69,0.043)"/>
<path d="M 94 73 H 131 V 74 H 94 Z" fill="rgba(6,27,68,0.145)"/>
<path d="M 26 74 H 86 V 75 H 26 Z" fill="rgba(0,25,65,0.349)"/>
<path d="M 96 74 H 131 V 75 H 96 Z" fill="rgba(1,25,68,0.580)"/>
<path d="M 26 75 H 86 V 76 H 26 Z" fill="rgba(0,25,66,0.678)"/>
<path d="M 97 75 H 131 V 76 H 97 Z" fill="rgba(2,24,69,0.361)"/>
<path d="M 25 76 H 86 V 77 H 25 Z" fill="rgba(0,30,60,0.067)"/>
<path d="M 98 76 H 131 V 77 H 98 Z" fill="rgba(0,28,69,0.173)"/>
<path d="M 25 77 H 86 V 78 H 25 Z" fill="rgba(0,27,65,0.259)"/>
<path d="M 99 77 H 131 V 78 H 99 Z" fill="rgba(0,19,58,0.051)"/>
<path d="M 25 78 H 86 V 79 H 25 Z" fill="rgba(0,24,67,0.447)"/>
<path d="M 90 78 H 91 V 79 H 90 Z" fill="rgba(0,26,80,0.075)"/>
<path d="M 101 78 H 131 V 79 H 101 Z" fill="rgba(2,25,70,0.427)"/>
<path d="M 25 79 H 86 V 80 H 25 Z" fill="rgba(0,24,66,0.573)"/>
<path d="M 88 79 H 92 V 80 H 88 Z" fill="rgba(0,24,65,0.122)"/>
<path d="M 102 79 H 130 V 80 H 102 Z" fill="rgba(4,28,68,0.247)"/>
<path d="M 25 80 H 86 V 81 H 25 Z" fill="rgba(1,24,66,0.643)"/>
<path d="M 88 80 H 93 V 81 H 88 Z" fill="rgba(1,25,68,0.784)"/>
<path d="M 103 80 H 130 V 81 H 103 Z" fill="rgba(0,21,65,0.137)"/>
<path d="M 25 81 H 86 V 82 H 25 Z" fill="rgba(0,25,67,0.671)"/>
<path d="M 87 81 H 94 V 82 H 87 Z" fill="rgba(1,25,68,0.557)"/>
<path d="M 104 81 H 130 V 82 H 104 Z" fill="rgba(1,25,67,0.502)"/>
<path d="M 25 82 H 95 V 83 H 25 Z" fill="rgba(0,24,67,0.655)"/>
<path d="M 104 82 H 129 V 83 H 104 Z" fill="rgba(4,24,68,0.247)"/>
<path d="M 25 83 H 95 V 84 H 25 Z" fill="rgba(0,25,67,0.580)"/>
<path d="M 104 83 H 129 V 84 H 104 Z" fill="rgba(0,31,63,0.063)"/>
<path d="M 25 84 H 31 V 85 H 25 Z" fill="rgba(0,23,67,0.459)"/>
<path d="M 32 84 H 96 V 85 H 32 Z" fill="rgba(0,23,66,0.584)"/>
<path d="M 105 84 H 128 V 85 H 105 Z" fill="rgba(1,26,67,0.722)"/>
<path d="M 25 85 H 31 V 86 H 25 Z" fill="rgba(0,25,69,0.275)"/>
<path d="M 32 85 H 97 V 86 H 32 Z" fill="rgba(1,24,66,0.863)"/>
<path d="M 105 85 H 128 V 86 H 105 Z" fill="rgba(2,25,68,0.435)"/>
<path d="M 25 86 H 30 V 87 H 25 Z" fill="rgba(0,26,67,0.075)"/>
<path d="M 31 86 H 98 V 87 H 31 Z" fill="rgba(0,23,69,0.216)"/>
<path d="M 105 86 H 127 V 87 H 105 Z" fill="rgba(0,29,68,0.102)"/>
<path d="M 26 87 H 30 V 88 H 26 Z" fill="rgba(1,24,66,0.690)"/>
<path d="M 31 87 H 98 V 88 H 31 Z" fill="rgba(0,26,66,0.494)"/>
<path d="M 106 87 H 126 V 88 H 106 Z" fill="rgba(1,26,67,0.561)"/>
<path d="M 26 88 H 30 V 89 H 26 Z" fill="rgba(0,24,65,0.322)"/>
<path d="M 31 88 H 99 V 89 H 31 Z" fill="rgba(1,25,68,0.749)"/>
<path d="M 106 88 H 126 V 89 H 106 Z" fill="rgba(0,17,68,0.059)"/>
<path d="M 27 89 H 30 V 90 H 27 Z" fill="rgba(1,24,67,0.804)"/>
<path d="M 31 89 H 100 V 90 H 31 Z" fill="rgba(1,25,67,0.937)"/>
<path d="M 107 89 H 125 V 90 H 107 Z" fill="rgba(0,21,63,0.141)"/>
<path d="M 27 90 H 100 V 91 H 27 Z" fill="rgba(0,25,68,0.235)"/>
<path d="M 108 90 H 123 V 91 H 108 Z" fill="rgba(0,23,69,0.086)"/>
<path d="M 28 91 H 29 V 92 H 28 Z" fill="rgba(0,17,51,0.059)"/>
<path d="M 30 91 H 101 V 92 H 30 Z" fill="rgba(1,25,67,0.620)"/>
<path d="M 110 91 H 122 V 92 H 110 Z" fill="rgba(0,28,68,0.176)"/>
<path d="M 29 92 H 102 V 93 H 29 Z" fill="rgba(0,26,70,0.227)"/>
<path d="M 28 93 H 102 V 94 H 28 Z" fill="rgba(0,27,63,0.110)"/>
<path d="M 116 93 H 123 V 94 H 116 Z" fill="rgba(0,23,69,0.086)"/>
<path d="M 28 94 H 103 V 95 H 28 Z" fill="rgba(1,24,67,0.761)"/>
<path d="M 112 94 H 128 V 95 H 112 Z" fill="rgba(4,26,71,0.224)"/>
<path d="M 27 95 H 104 V 96 H 27 Z" fill="rgba(0,25,67,0.580)"/>
<path d="M 109 95 H 130 V 96 H 109 Z" fill="rgba(0,28,68,0.176)"/>
<path d="M 26 96 H 105 V 97 H 26 Z" fill="rgba(0,24,65,0.365)"/>
<path d="M 107 96 H 132 V 97 H 107 Z" fill="rgba(0,25,70,0.200)"/>
<path d="M 25 97 H 134 V 98 H 25 Z" fill="rgba(0,27,68,0.145)"/>
<path d="M 25 98 H 135 V 99 H 25 Z" fill="rgba(1,25,67,0.784)"/>
<path d="M 24 99 H 136 V 100 H 24 Z" fill="rgba(1,25,67,0.502)"/>
<path d="M 23 100 H 137 V 101 H 23 Z" fill="rgba(0,23,69,0.173)"/>
<path d="M 23 101 H 138 V 102 H 23 Z" fill="rgba(1,25,66,0.753)"/>
<path d="M 22 102 H 139 V 103 H 22 Z" fill="rgba(0,24,67,0.369)"/>
<path d="M 21 103 H 140 V 104 H 21 Z" fill="rgba(0,23,69,0.043)"/>
<path d="M 21 104 H 141 V 105 H 21 Z" fill="rgba(0,23,64,0.463)"/>
<path d="M 20 105 H 141 V 106 H 20 Z" fill="rgba(0,25,63,0.078)"/>
<path d="M 20 106 H 142 V 107 H 20 Z" fill="rgba(0,24,66,0.482)"/>
<path d="M 19 107 H 143 V 108 H 19 Z" fill="rgba(0,21,63,0.047)"/>
<path d="M 19 108 H 143 V 109 H 19 Z" fill="rgba(2,24,66,0.361)"/>
<path d="M 19 109 H 143 V 110 H 19 Z" fill="rgba(1,25,66,0.757)"/>
<path d="M 18 110 H 144 V 111 H 18 Z" fill="rgba(0,21,65,0.184)"/>
<path d="M 18 111 H 144 V 112 H 18 Z" fill="rgba(1,24,65,0.522)"/>
<path d="M 18 112 H 144 V 113 H 18 Z" fill="rgba(1,25,66,0.816)"/>
<path d="M 17 113 H 145 V 114 H 17 Z" fill="rgba(0,25,66,0.196)"/>
<path d="M 17 114 H 145 V 115 H 17 Z" fill="rgba(0,25,66,0.463)"/>
<path d="M 17 115 H 145 V 116 H 17 Z" fill="rgba(1,25,65,0.702)"/>
<path d="M 16 116 H 145 V 117 H 16 Z" fill="rgba(0,17,68,0.059)"/>
<path d="M 16 117 H 145 V 118 H 16 Z" fill="rgba(0,26,67,0.224)"/>
<path d="M 16 118 H 145 V 119 H 16 Z" fill="rgba(2,25,68,0.396)"/>
<path d="M 16 119 H 145 V 120 H 16 Z" fill="rgba(1,26,67,0.565)"/>
<path d="M 16 120 H 145 V 121 H 16 Z" fill="rgba(1,24,67,0.682)"/>
<path d="M 16 121 H 145 V 122 H 16 Z" fill="rgba(1,25,66,0.792)"/>
<path d="M 15 122 H 145 V 123 H 15 Z" fill="rgba(0,31,63,0.031)"/>
<path d="M 15 123 H 145 V 124 H 15 Z" fill="rgba(0,26,67,0.075)"/>
<path d="M 15 124 H 145 V 125 H 15 Z" fill="rgba(0,23,63,0.125)"/>
<path d="M 15 125 H 144 V 126 H 15 Z" fill="rgba(0,24,68,0.161)"/>
<path d="M 15 126 H 144 V 127 H 15 Z" fill="rgba(0,26,67,0.192)"/>
<path d="M 15 127 H 144 V 128 H 15 Z" fill="rgba(0,24,63,0.204)"/>
<path d="M 15 128 H 143 V 129 H 15 Z" fill="rgba(0,24,62,0.208)"/>
<path d="M 15 129 H 143 V 130 H 15 Z" fill="rgba(0,26,63,0.188)"/>
<path d="M 15 130 H 142 V 131 H 15 Z" fill="rgba(0,24,66,0.165)"/>
<path d="M 15 131 H 142 V 132 H 15 Z" fill="rgba(0,22,67,0.133)"/>
<path d="M 15 132 H 141 V 133 H 15 Z" fill="rgba(0,21,63,0.094)"/>
<path d="M 15 133 H 141 V 134 H 15 Z" fill="rgba(0,31,63,0.031)"/>
<path d="M 16 134 H 20 V 135 H 16 Z" fill="rgba(2,23,60,0.380)"/>
<path d="M 29 134 H 140 V 135 H 29 Z" fill="rgba(170,85,42,0.047)"/>
<path d="M 17 135 H 18 V 136 H 17 Z" fill="rgba(0,21,63,0.047)"/>
<path d="M 35 135 H 139 V 136 H 35 Z" fill="rgba(163,72,36,0.055)"/>
<path d="M 40 136 H 138 V 137 H 40 Z" fill="rgba(162,81,46,0.086)"/>
<path d="M 44 137 H 137 V 138 H 44 Z" fill="rgba(170,85,51,0.059)"/>
<path d="M 49 138 H 136 V 139 H 49 Z" fill="rgba(165,89,51,0.157)"/>
<path d="M 53 139 H 135 V 140 H 53 Z" fill="rgba(159,95,63,0.031)"/>
<path d="M 62 140 H 68 V 141 H 62 Z" fill="rgba(159,95,31,0.031)"/>
<path d="M 69 140 H 133 V 141 H 69 Z" fill="rgba(9,27,65,0.322)"/>
<path d="M 70 141 H 131 V 142 H 70 Z" fill="rgba(4,26,68,0.482)"/>
<path d="M 71 142 H 108 V 143 H 71 Z" fill="rgba(1,26,68,0.569)"/>
<path d="M 109 142 H 129 V 143 H 109 Z" fill="rgba(0,23,69,0.043)"/>
<path d="M 72 143 H 107 V 144 H 72 Z" fill="rgba(1,25,68,0.541)"/>
<path d="M 112 143 H 126 V 144 H 112 Z" fill="rgba(0,24,72,0.082)"/>
<path d="M 73 144 H 106 V 145 H 73 Z" fill="rgba(0,27,69,0.404)"/>
<path d="M 119 144 H 120 V 145 H 119 Z" fill="rgba(0,31,63,0.031)"/>
<path d="M 74 145 H 105 V 146 H 74 Z" fill="rgba(0,27,68,0.220)"/>
<path d="M 75 146 H 104 V 147 H 75 Z" fill="rgba(0,31,63,0.031)"/>
<path d="M 77 147 H 102 V 148 H 77 Z" fill="rgba(0,20,71,0.098)"/>
<path d="M 79 148 H 100 V 149 H 79 Z" fill="rgba(0,31,63,0.063)"/>
<path d="M 82 149 H 97 V 150 H 82 Z" fill="rgba(0,24,72,0.082)"/>
<path d="M 88 150 H 92 V 151 H 88 Z" fill="rgba(0,18,72,0.055)"/>
</svg>
